<mxfile host="Electron" modified="2024-02-29T16:21:24.194Z" agent="Mozilla/5.0 (Macintosh; Intel Mac OS X 10_15_7) AppleWebKit/537.36 (KHTML, like Gecko) draw.io/23.1.5 Chrome/120.0.6099.109 Electron/28.1.0 Safari/537.36" etag="3pTZOFyN-Oxw8cDrdAb8" version="23.1.5" type="device">
  <diagram name="Page-1" id="L8QuVUaq8YHzWdnUO0x3">
    <mxGraphModel dx="1122" dy="694" grid="1" gridSize="10" guides="1" tooltips="1" connect="1" arrows="1" fold="1" page="1" pageScale="1" pageWidth="827" pageHeight="1169" math="0" shadow="0">
      <root>
        <mxCell id="0" />
        <mxCell id="1" parent="0" />
        <mxCell id="cs4dtVgFudFPthm_U2jf-44" value="" style="ellipse;whiteSpace=wrap;html=1;fillColor=none;rotation=-90;strokeColor=default;" vertex="1" parent="1">
          <mxGeometry x="365" y="117" width="40" height="20" as="geometry" />
        </mxCell>
        <mxCell id="cs4dtVgFudFPthm_U2jf-1" value="" style="endArrow=none;html=1;rounded=0;fillColor=#f8cecc;strokeColor=#b85450;" edge="1" parent="1">
          <mxGeometry width="50" height="50" relative="1" as="geometry">
            <mxPoint x="80" y="460" as="sourcePoint" />
            <mxPoint x="80" y="80" as="targetPoint" />
          </mxGeometry>
        </mxCell>
        <mxCell id="cs4dtVgFudFPthm_U2jf-2" value="" style="endArrow=none;html=1;rounded=0;fillColor=#f8cecc;strokeColor=#b85450;" edge="1" parent="1">
          <mxGeometry width="50" height="50" relative="1" as="geometry">
            <mxPoint x="119" y="460" as="sourcePoint" />
            <mxPoint x="119" y="80" as="targetPoint" />
          </mxGeometry>
        </mxCell>
        <mxCell id="cs4dtVgFudFPthm_U2jf-3" value="" style="endArrow=none;html=1;rounded=0;fillColor=#f8cecc;strokeColor=#b85450;" edge="1" parent="1">
          <mxGeometry width="50" height="50" relative="1" as="geometry">
            <mxPoint x="160" y="460" as="sourcePoint" />
            <mxPoint x="160" y="80" as="targetPoint" />
          </mxGeometry>
        </mxCell>
        <mxCell id="cs4dtVgFudFPthm_U2jf-4" value="" style="endArrow=none;html=1;rounded=0;fillColor=#dae8fc;strokeColor=#6c8ebf;" edge="1" parent="1">
          <mxGeometry width="50" height="50" relative="1" as="geometry">
            <mxPoint x="40" y="460" as="sourcePoint" />
            <mxPoint x="40" y="80" as="targetPoint" />
          </mxGeometry>
        </mxCell>
        <mxCell id="cs4dtVgFudFPthm_U2jf-5" value="" style="html=1;shape=mxgraph.electrical.electro-mechanical.switchDisconnector;aspect=fixed;elSwitchState=off;fillColor=#f8cecc;strokeColor=#b85450;" vertex="1" parent="1">
          <mxGeometry x="200" y="143" width="75" height="20" as="geometry" />
        </mxCell>
        <mxCell id="cs4dtVgFudFPthm_U2jf-6" value="" style="html=1;shape=mxgraph.electrical.electro-mechanical.switchDisconnector;aspect=fixed;elSwitchState=off;fillColor=#dae8fc;strokeColor=#6c8ebf;" vertex="1" parent="1">
          <mxGeometry x="200" y="200" width="75" height="20" as="geometry" />
        </mxCell>
        <mxCell id="cs4dtVgFudFPthm_U2jf-8" value="" style="html=1;shape=mxgraph.electrical.electro-mechanical.switchDisconnector;aspect=fixed;elSwitchState=off;fillColor=#f8cecc;strokeColor=#b85450;" vertex="1" parent="1">
          <mxGeometry x="200" y="269" width="75" height="20" as="geometry" />
        </mxCell>
        <mxCell id="cs4dtVgFudFPthm_U2jf-9" value="" style="endArrow=none;html=1;rounded=0;entryX=0;entryY=0.84;entryDx=0;entryDy=0;fillColor=#f8cecc;strokeColor=#b85450;" edge="1" parent="1">
          <mxGeometry width="50" height="50" relative="1" as="geometry">
            <mxPoint x="80" y="160" as="sourcePoint" />
            <mxPoint x="200" y="159.79999999999995" as="targetPoint" />
          </mxGeometry>
        </mxCell>
        <mxCell id="cs4dtVgFudFPthm_U2jf-10" value="" style="endArrow=none;html=1;rounded=0;fillColor=#dae8fc;strokeColor=#6c8ebf;" edge="1" parent="1">
          <mxGeometry width="50" height="50" relative="1" as="geometry">
            <mxPoint x="40" y="217" as="sourcePoint" />
            <mxPoint x="200" y="217" as="targetPoint" />
          </mxGeometry>
        </mxCell>
        <mxCell id="cs4dtVgFudFPthm_U2jf-12" value="" style="endArrow=none;html=1;rounded=0;entryX=0;entryY=0.84;entryDx=0;entryDy=0;fillColor=#f8cecc;strokeColor=#b85450;" edge="1" parent="1">
          <mxGeometry width="50" height="50" relative="1" as="geometry">
            <mxPoint x="160" y="286" as="sourcePoint" />
            <mxPoint x="200" y="285.85" as="targetPoint" />
          </mxGeometry>
        </mxCell>
        <mxCell id="cs4dtVgFudFPthm_U2jf-13" value="" style="endArrow=none;dashed=1;html=1;dashPattern=1 3;strokeWidth=2;rounded=0;" edge="1" parent="1">
          <mxGeometry width="50" height="50" relative="1" as="geometry">
            <mxPoint x="220" y="340" as="sourcePoint" />
            <mxPoint x="220" y="140" as="targetPoint" />
          </mxGeometry>
        </mxCell>
        <mxCell id="cs4dtVgFudFPthm_U2jf-14" value="" style="endArrow=none;dashed=1;html=1;dashPattern=1 3;strokeWidth=2;rounded=0;" edge="1" parent="1">
          <mxGeometry width="50" height="50" relative="1" as="geometry">
            <mxPoint x="280" y="340" as="sourcePoint" />
            <mxPoint x="280" y="140" as="targetPoint" />
          </mxGeometry>
        </mxCell>
        <mxCell id="cs4dtVgFudFPthm_U2jf-15" value="Disjoncteur Triphasé" style="text;html=1;align=center;verticalAlign=middle;whiteSpace=wrap;rounded=0;" vertex="1" parent="1">
          <mxGeometry x="220" y="71" width="60" height="30" as="geometry" />
        </mxCell>
        <mxCell id="cs4dtVgFudFPthm_U2jf-16" value="" style="pointerEvents=1;verticalLabelPosition=bottom;shadow=0;dashed=0;align=center;html=1;verticalAlign=top;shape=mxgraph.electrical.resistors.resistor_1;rotation=-60;" vertex="1" parent="1">
          <mxGeometry x="383" y="182" width="70" height="7" as="geometry" />
        </mxCell>
        <mxCell id="cs4dtVgFudFPthm_U2jf-17" value="" style="pointerEvents=1;verticalLabelPosition=bottom;shadow=0;dashed=0;align=center;html=1;verticalAlign=top;shape=mxgraph.electrical.resistors.resistor_1;rotation=-125;" vertex="1" parent="1">
          <mxGeometry x="345" y="185" width="70" height="7" as="geometry" />
        </mxCell>
        <mxCell id="cs4dtVgFudFPthm_U2jf-18" value="" style="pointerEvents=1;verticalLabelPosition=bottom;shadow=0;dashed=0;align=center;html=1;verticalAlign=top;shape=mxgraph.electrical.resistors.resistor_1;rotation=-90;" vertex="1" parent="1">
          <mxGeometry x="365" y="247" width="70" height="7" as="geometry" />
        </mxCell>
        <mxCell id="cs4dtVgFudFPthm_U2jf-19" value="Ph1" style="text;html=1;align=center;verticalAlign=middle;whiteSpace=wrap;rounded=0;fontColor=#FF4124;" vertex="1" parent="1">
          <mxGeometry x="50" y="50" width="60" height="30" as="geometry" />
        </mxCell>
        <mxCell id="cs4dtVgFudFPthm_U2jf-20" value="Ph2" style="text;html=1;align=center;verticalAlign=middle;whiteSpace=wrap;rounded=0;fontColor=#FF4124;" vertex="1" parent="1">
          <mxGeometry x="90" y="50" width="60" height="30" as="geometry" />
        </mxCell>
        <mxCell id="cs4dtVgFudFPthm_U2jf-21" value="Ph3" style="text;html=1;align=center;verticalAlign=middle;whiteSpace=wrap;rounded=0;fontColor=#FF4124;" vertex="1" parent="1">
          <mxGeometry x="130" y="50" width="60" height="30" as="geometry" />
        </mxCell>
        <mxCell id="cs4dtVgFudFPthm_U2jf-22" value="N" style="text;html=1;align=center;verticalAlign=middle;whiteSpace=wrap;rounded=0;fontColor=#456E96;" vertex="1" parent="1">
          <mxGeometry x="10" y="50" width="60" height="30" as="geometry" />
        </mxCell>
        <mxCell id="cs4dtVgFudFPthm_U2jf-23" value="" style="endArrow=none;html=1;rounded=0;entryX=0;entryY=0.5;entryDx=0;entryDy=0;entryPerimeter=0;fillColor=#dae8fc;strokeColor=#6c8ebf;" edge="1" parent="1" target="cs4dtVgFudFPthm_U2jf-17">
          <mxGeometry width="50" height="50" relative="1" as="geometry">
            <mxPoint x="275" y="217" as="sourcePoint" />
            <mxPoint x="325" y="167" as="targetPoint" />
          </mxGeometry>
        </mxCell>
        <mxCell id="cs4dtVgFudFPthm_U2jf-25" value="" style="endArrow=none;html=1;rounded=0;exitX=1;exitY=0.84;exitDx=0;exitDy=0;fillColor=#f8cecc;strokeColor=#b85450;" edge="1" parent="1">
          <mxGeometry width="50" height="50" relative="1" as="geometry">
            <mxPoint x="275" y="159.79999999999995" as="sourcePoint" />
            <mxPoint x="360" y="160" as="targetPoint" />
          </mxGeometry>
        </mxCell>
        <mxCell id="cs4dtVgFudFPthm_U2jf-26" value="" style="endArrow=none;html=1;rounded=0;exitX=1;exitY=0.5;exitDx=0;exitDy=0;exitPerimeter=0;" edge="1" parent="1" source="cs4dtVgFudFPthm_U2jf-16">
          <mxGeometry width="50" height="50" relative="1" as="geometry">
            <mxPoint x="393" y="189" as="sourcePoint" />
            <mxPoint x="440" y="140" as="targetPoint" />
          </mxGeometry>
        </mxCell>
        <mxCell id="cs4dtVgFudFPthm_U2jf-29" value="" style="endArrow=none;html=1;rounded=0;fillColor=#f8cecc;strokeColor=#b85450;" edge="1" parent="1">
          <mxGeometry width="50" height="50" relative="1" as="geometry">
            <mxPoint x="275" y="286" as="sourcePoint" />
            <mxPoint x="400" y="286" as="targetPoint" />
          </mxGeometry>
        </mxCell>
        <mxCell id="cs4dtVgFudFPthm_U2jf-30" value="" style="html=1;shape=mxgraph.electrical.electro-mechanical.switchDisconnector;aspect=fixed;elSwitchState=off;fillColor=#f8cecc;strokeColor=#b85450;" vertex="1" parent="1">
          <mxGeometry x="330" y="410" width="75" height="20" as="geometry" />
        </mxCell>
        <mxCell id="cs4dtVgFudFPthm_U2jf-31" value="Disjoncteur Monophasé" style="text;html=1;align=center;verticalAlign=middle;whiteSpace=wrap;rounded=0;" vertex="1" parent="1">
          <mxGeometry x="340.5" y="318" width="60" height="30" as="geometry" />
        </mxCell>
        <mxCell id="cs4dtVgFudFPthm_U2jf-32" value="" style="endArrow=none;html=1;rounded=0;fillColor=#f8cecc;strokeColor=#b85450;" edge="1" parent="1">
          <mxGeometry width="50" height="50" relative="1" as="geometry">
            <mxPoint x="160" y="427" as="sourcePoint" />
            <mxPoint x="330" y="426.8" as="targetPoint" />
          </mxGeometry>
        </mxCell>
        <mxCell id="cs4dtVgFudFPthm_U2jf-33" value="" style="html=1;shape=mxgraph.electrical.electro-mechanical.switchDisconnector;aspect=fixed;elSwitchState=off;fillColor=#f8cecc;strokeColor=#b85450;" vertex="1" parent="1">
          <mxGeometry x="212.5" y="111" width="75" height="20" as="geometry" />
        </mxCell>
        <mxCell id="cs4dtVgFudFPthm_U2jf-34" value="" style="endArrow=none;html=1;rounded=0;fillColor=#f8cecc;strokeColor=#b85450;" edge="1" parent="1" source="cs4dtVgFudFPthm_U2jf-44">
          <mxGeometry width="50" height="50" relative="1" as="geometry">
            <mxPoint x="287.5" y="128" as="sourcePoint" />
            <mxPoint x="440" y="128" as="targetPoint" />
          </mxGeometry>
        </mxCell>
        <mxCell id="cs4dtVgFudFPthm_U2jf-35" value="" style="endArrow=none;html=1;rounded=0;fillColor=#f8cecc;strokeColor=#b85450;" edge="1" parent="1">
          <mxGeometry width="50" height="50" relative="1" as="geometry">
            <mxPoint x="440" y="140" as="sourcePoint" />
            <mxPoint x="439" y="128" as="targetPoint" />
          </mxGeometry>
        </mxCell>
        <mxCell id="cs4dtVgFudFPthm_U2jf-36" value="" style="html=1;shape=mxgraph.electrical.electro-mechanical.switchDisconnector;aspect=fixed;elSwitchState=off;fillColor=#dae8fc;strokeColor=#6c8ebf;" vertex="1" parent="1">
          <mxGeometry x="330" y="370" width="75" height="20" as="geometry" />
        </mxCell>
        <mxCell id="cs4dtVgFudFPthm_U2jf-37" value="" style="endArrow=none;dashed=1;html=1;dashPattern=1 3;strokeWidth=2;rounded=0;" edge="1" parent="1">
          <mxGeometry width="50" height="50" relative="1" as="geometry">
            <mxPoint x="345" y="460" as="sourcePoint" />
            <mxPoint x="345" y="360" as="targetPoint" />
          </mxGeometry>
        </mxCell>
        <mxCell id="cs4dtVgFudFPthm_U2jf-38" value="" style="endArrow=none;dashed=1;html=1;dashPattern=1 3;strokeWidth=2;rounded=0;" edge="1" parent="1">
          <mxGeometry width="50" height="50" relative="1" as="geometry">
            <mxPoint x="399.55" y="460" as="sourcePoint" />
            <mxPoint x="399.55" y="350" as="targetPoint" />
          </mxGeometry>
        </mxCell>
        <mxCell id="cs4dtVgFudFPthm_U2jf-39" value="" style="endArrow=none;html=1;rounded=0;fillColor=#dae8fc;strokeColor=#6c8ebf;entryX=0;entryY=0.84;entryDx=0;entryDy=0;" edge="1" parent="1" target="cs4dtVgFudFPthm_U2jf-36">
          <mxGeometry width="50" height="50" relative="1" as="geometry">
            <mxPoint x="40" y="383.55" as="sourcePoint" />
            <mxPoint x="200" y="383.55" as="targetPoint" />
          </mxGeometry>
        </mxCell>
        <mxCell id="cs4dtVgFudFPthm_U2jf-40" value="" style="endArrow=none;html=1;rounded=0;entryX=0;entryY=0.84;entryDx=0;entryDy=0;fillColor=#f8cecc;strokeColor=#b85450;" edge="1" parent="1">
          <mxGeometry width="50" height="50" relative="1" as="geometry">
            <mxPoint x="120" y="127" as="sourcePoint" />
            <mxPoint x="212.5" y="127.46999999999997" as="targetPoint" />
          </mxGeometry>
        </mxCell>
        <mxCell id="cs4dtVgFudFPthm_U2jf-41" value="Capteur courant" style="whiteSpace=wrap;html=1;aspect=fixed;" vertex="1" parent="1">
          <mxGeometry x="500" y="63" width="57" height="57" as="geometry" />
        </mxCell>
        <mxCell id="cs4dtVgFudFPthm_U2jf-42" value="Capteur tension" style="whiteSpace=wrap;html=1;aspect=fixed;" vertex="1" parent="1">
          <mxGeometry x="500" y="250.5" width="57" height="57" as="geometry" />
        </mxCell>
        <mxCell id="cs4dtVgFudFPthm_U2jf-45" value="" style="endArrow=none;html=1;rounded=0;fillColor=#f8cecc;strokeColor=#b85450;" edge="1" parent="1" target="cs4dtVgFudFPthm_U2jf-44">
          <mxGeometry width="50" height="50" relative="1" as="geometry">
            <mxPoint x="287.5" y="128" as="sourcePoint" />
            <mxPoint x="440" y="128" as="targetPoint" />
          </mxGeometry>
        </mxCell>
        <mxCell id="cs4dtVgFudFPthm_U2jf-46" value="" style="endArrow=none;html=1;rounded=0;entryX=0;entryY=0.75;entryDx=0;entryDy=0;" edge="1" parent="1" target="cs4dtVgFudFPthm_U2jf-41">
          <mxGeometry width="50" height="50" relative="1" as="geometry">
            <mxPoint x="384" y="106" as="sourcePoint" />
            <mxPoint x="434" y="56" as="targetPoint" />
          </mxGeometry>
        </mxCell>
        <mxCell id="cs4dtVgFudFPthm_U2jf-47" value="" style="endArrow=none;html=1;rounded=0;endSize=0;startSize=3;jumpSize=3;" edge="1" parent="1">
          <mxGeometry width="50" height="50" relative="1" as="geometry">
            <mxPoint x="399.5" y="285.5" as="sourcePoint" />
            <mxPoint x="500" y="284.5" as="targetPoint" />
          </mxGeometry>
        </mxCell>
        <mxCell id="cs4dtVgFudFPthm_U2jf-48" value="Transfo 230v&lt;br&gt;+15v-15v" style="whiteSpace=wrap;html=1;aspect=fixed;" vertex="1" parent="1">
          <mxGeometry x="500" y="353" width="57" height="57" as="geometry" />
        </mxCell>
      </root>
    </mxGraphModel>
  </diagram>
</mxfile>
